<svg xmlns="http://www.w3.org/2000/svg" xml:space="preserve" width="3480.006" height="1041.868"><defs><clipPath id="a" clipPathUnits="userSpaceOnUse"><path d="M0 6v7814h26100V6Z"/></clipPath></defs><path d="M0 4883.75h16300V4.123H0" style="fill:#1d373f;fill-opacity:1;fill-rule:nonzero;stroke:none" transform="matrix(.2135 0 0 -.2135 0 1042.668)"/><g clip-path="url(#a)" transform="matrix(.13333 0 0 -.13333 0 1042.668)"><path d="M14510.6 4583.63c-357.2-357.11-936.2-357.11-1293.3 0L8543.36 9257.46c-357.11 357.15-357.11 936.14 0 1293.34 357.15 357.1 936.17 357.1 1293.24 0l4674-4673.92c357-357.15 357-936.18 0-1293.25" style="fill:#254752;fill-opacity:1;fill-rule:nonzero;stroke:none"/><path d="M14394.6 2317.62c-147.5-147.39-386.4-147.39-533.8 0l-822.7 822.54c-147.4 147.46-147.4 386.44 0 533.9 147.5 147.42 386.5 147.42 533.9 0l822.6-822.65c147.3-147.39 147.3-386.37 0-533.79" style="fill:#3eb9e2;fill-opacity:1;fill-rule:nonzero;stroke:none"/><path d="M16023.2-2351.55c-276.7-276.72-725.4-276.72-1002.2 0l-4664.2 4664.22c-276.8 276.8-276.8 725.5 0 1002.21 276.7 276.81 725.4 276.81 1002.2 0l4664.2-4664.22c276.8-276.72 276.8-725.45 0-1002.21" style="fill:#307288;fill-opacity:1;fill-rule:nonzero;stroke:none" transform="scale(1.05306)"/><path d="M16157 4760.7c-143.1-143.01-374.9-143.01-518 0l-4406.2 4406.24c-143 143-143 374.89 0 517.93s374.9 143.04 518 0L16157 5278.63c143-143 143-374.89 0-517.93" style="fill:#3eb9e2;fill-opacity:1;fill-rule:nonzero;stroke:none" transform="scale(1.03061)"/><path d="M16300 4883.73V4.096h-2092.9L9327.49 4883.73Z" style="fill:#3eb9e2;fill-opacity:1;fill-rule:nonzero;stroke:none" transform="scale(1.60123)"/><path d="M16062.8-1192.84c-237.2-237.17-621.9-237.17-859 0L11584.1 2426.8c-237.2 237.23-237.2 621.84 0 859.01 237.2 237.25 621.9 237.25 859 0l3619.7-3619.637c237.2-237.177 237.2-621.779 0-859.013" style="fill:#307288;fill-opacity:1;fill-rule:nonzero;stroke:none" transform="scale(1.5055)"/><path d="M16734-754.478c-92.1-92.065-241.3-92.065-333.4 0L14591.4 1054.66c-92 92.07-92 241.32 0 333.39 92.1 92.09 241.3 92.09 333.4 0L16734-421.064c92-92.117 92-241.316 0-333.414" style="fill:#254752;fill-opacity:1;fill-rule:nonzero;stroke:none" transform="scale(1.60123)"/><path d="M16760.2 685.731c-62.8-62.796-164.7-62.796-227.5 0l-1915 1915.029c-62.8 62.85-62.8 164.69 0 227.49 62.8 62.85 164.6 62.85 227.5 0l1915-1914.988c62.8-62.84 62.8-164.717 0-227.531" style="fill:#307288;fill-opacity:1;fill-rule:nonzero;stroke:none" transform="scale(1.60123)"/><path d="M16092.6 4126.62c-207.4-207.41-543.6-207.41-751 0l-3663 3663.03c-207.4 207.35-207.4 543.58 0 750.99s543.6 207.41 751 0l3663-3663.02c207.4-207.41 207.4-543.64 0-751" style="fill:#307288;fill-opacity:1;fill-rule:nonzero;stroke:none" transform="scale(1.35185)"/><path d="M16163.6-700.414c-136.4-136.404-357.6-136.404-493.9 0L13860.2 1109.05c-136.3 136.37-136.3 357.49 0 493.9 136.4 136.4 357.6 136.4 493.9 0l1809.5-1809.396c136.4-136.476 136.4-357.531 0-493.968" style="fill:#3eb9e2;fill-opacity:1;fill-rule:nonzero;stroke:none" transform="scale(1.08077)"/><path d="M16249.2 3433.71c0-315.78-256-571.8-571.8-571.8s-571.7 256.02-571.7 571.8c0 315.74 255.9 571.72 571.7 571.72s571.8-255.98 571.8-571.72" style="fill:#254752;fill-opacity:1;fill-rule:nonzero;stroke:none"/><path d="M16300 1268.75c0-447.994-363.2-811.146-811.1-811.146-448 0-811.2 363.152-811.2 811.146 0 447.97 363.2 811.12 811.2 811.12 447.9 0 811.1-363.15 811.1-811.12" style="fill:#307288;fill-opacity:1;fill-rule:nonzero;stroke:none" transform="scale(1.13944)"/><path d="M12727.1 4007.38c-147.4-147.38-386.4-147.38-533.9 0l-144.3 144.42c-147.4 147.38-147.4 386.36 0 533.79 147.4 147.38 386.4 147.38 533.8 0l144.4-144.42c147.4-147.38 147.4-386.37 0-533.79" style="fill:#3eb9e2;fill-opacity:1;fill-rule:nonzero;stroke:none"/></g></svg>