<svg xmlns="http://www.w3.org/2000/svg" xml:space="preserve" width="720" height="480"><path d="M0 0h5400v3600H0Z" style="fill:#1d373f;fill-opacity:1;fill-rule:nonzero;stroke:none" transform="matrix(-.13333 0 0 -.13333 720 480)"/><path d="M2401.05 836.762c-92.42 92.418-242.26 92.418-334.68 0L856.801-372.77c-92.391-92.429-92.391-242.269 0-334.691 92.418-92.418 242.299-92.418 334.679 0l1209.57 1209.57c92.39 92.422 92.39 242.27 0 334.653M4551.09 3042.23c73.25-73.25 191.96-73.25 265.2 0l958.44 958.39c73.24 73.25 73.24 192 0 265.24-73.25 73.2-192 73.2-265.2 0l-958.44-958.44c-73.2-73.24-73.2-191.99 0-265.19" style="fill:#254752;fill-opacity:1;fill-rule:nonzero;stroke:none" transform="matrix(-.13333 0 0 -.13333 720 480)"/><path d="M2371.02 1423.16c-38.13 38.17-99.97 38.17-138.13 0L2020 1210.31c-38.16-38.16-38.16-100 0-138.16 38.16-38.13 100-38.13 138.16 0l212.86 212.89c38.16 38.16 38.16 100 0 138.12" style="fill:#3eb9e2;fill-opacity:1;fill-rule:nonzero;stroke:none" transform="matrix(-.13333 0 0 -.13333 720 480)"/><path d="M3012.54 2663.79c-75.43 75.43-197.7 75.43-273.13 0L1468.32 1392.7c-75.43-75.43-75.43-197.7 0-273.13s197.7-75.43 273.13 0l1271.09 1271.09c75.43 75.43 75.43 197.7 0 273.13" style="fill:#307288;fill-opacity:1;fill-rule:nonzero;stroke:none" transform="matrix(-.13333 0 0 -.13333 720 480)"/><path d="M1725.9 1377.19c75.39-75.39 197.69-75.39 273.12 0l1271.1 1271.09c75.43 75.43 75.43 197.74 0 273.13-75.43 75.43-197.7 75.43-273.13 0L1725.9 1650.31c-75.43-75.39-75.43-197.69 0-273.12" style="fill:#307288;fill-opacity:1;fill-rule:nonzero;stroke:none" transform="matrix(-.13333 0 0 -.13333 720 480)"/><path d="M2955.12 753.238c-38.13 38.133-100 38.133-138.13 0L1641.8-421.949c-38.13-38.172-38.13-100 0-138.172 38.16-38.117 100-38.117 138.16 0L2955.12 615.082c38.16 38.156 38.16 100 0 138.156M5400.27-.738V2021.25h-867.26L2511.02-.738Z" style="fill:#3eb9e2;fill-opacity:1;fill-rule:nonzero;stroke:none" transform="matrix(-.13333 0 0 -.13333 720 480)"/><path d="M6691.6 1052.66v2021.99h-867.26l-2022-2021.99z" style="fill:#3eb9e2;fill-opacity:1;fill-rule:nonzero;stroke:none" transform="matrix(-.13333 0 0 -.13333 720 480)"/><path d="M4904.06 2487.7c-92.42 92.38-242.26 92.38-334.68 0L3159.14 1077.46c-92.42-92.421-92.42-242.261 0-334.69 92.42-92.418 242.27-92.418 334.69 0l1410.23 1410.24c92.42 92.42 92.42 242.26 0 334.69" style="fill:#307288;fill-opacity:1;fill-rule:nonzero;stroke:none" transform="matrix(-.13333 0 0 -.13333 720 480)"/><path d="M3959.69 1543.83c92.38-92.38 242.26-92.38 334.65 0l1410.23 1410.23c92.42 92.42 92.42 242.27 0 334.69s-242.27 92.42-334.65 0L3959.69 1878.52c-92.42-92.43-92.42-242.27 0-334.69" style="fill:#307288;fill-opacity:1;fill-rule:nonzero;stroke:none" transform="matrix(-.13333 0 0 -.13333 720 480)"/><path d="M5580.08 2335.59c-38.13 38.16-100 38.16-138.13 0l-749.68-749.65c-38.13-38.17-38.13-100 0-138.17 38.16-38.16 100-38.16 138.12 0l749.69 749.69c38.16 38.16 38.16 99.96 0 138.13" style="fill:#254752;fill-opacity:1;fill-rule:nonzero;stroke:none" transform="matrix(-.13333 0 0 -.13333 720 480)"/><path d="M4925.39 1681.68c38.16-38.16 100-38.16 138.16 0l749.65 749.69c38.17 38.12 38.17 99.96 0 138.12-38.12 38.17-100 38.17-138.12 0l-749.69-749.65c-38.12-38.16-38.12-100 0-138.16" style="fill:#254752;fill-opacity:1;fill-rule:nonzero;stroke:none" transform="matrix(-.13333 0 0 -.13333 720 480)"/><path d="M5590.98 1738.79c-26.06 26.05-68.25 26.05-94.3 0l-793.56-793.56c-26.01-26.011-26.01-68.199 0-94.25 26.06-26.019 68.25-26.019 94.3 0l793.56 793.55c26.01 26.02 26.01 68.24 0 94.26m-1040 1958.59c-26.06 26.02-68.25 26.02-94.26 0l-793.56-793.55c-26.05-26.06-26.05-68.24 0-94.26 26.02-26.05 68.25-26.05 94.26 0l793.56 793.52c26.01 26.05 26.01 68.28 0 94.29" style="fill:#307288;fill-opacity:1;fill-rule:nonzero;stroke:none" transform="matrix(-.13333 0 0 -.13333 720 480)"/><path d="M4161.68 3307.46c26.05-26.01 68.24-26.01 94.3 0l793.55 793.56c26.02 26.01 26.02 68.24 0 94.25-26.05 26.02-68.24 26.02-94.3 0l-793.55-793.55c-26.02-26.02-26.02-68.24 0-94.26m114.1-2728.159c-72.54 72.539-190.16 72.539-262.73 0L2731.56-702.191c-72.54-72.539-72.54-190.188 0-262.727 72.58-72.582 190.2-72.582 262.74 0L4275.78 316.559c72.58 72.543 72.58 190.203 0 262.742" style="fill:#307288;fill-opacity:1;fill-rule:nonzero;stroke:none" transform="matrix(-.13333 0 0 -.13333 720 480)"/><path d="M3166.68 2218.87c-38.13 38.12-99.96 38.12-138.13 0l-506.09-506.1c-38.12-38.16-38.12-100 0-138.16 38.16-38.13 100-38.13 138.16 0l506.06 506.09c38.16 38.17 38.16 100 0 138.17" style="fill:#3eb9e2;fill-opacity:1;fill-rule:nonzero;stroke:none" transform="matrix(-.13333 0 0 -.13333 720 480)"/><path d="M2687.03 1737.81c38.13-38.16 100-38.16 138.13 0l506.09 506.1c38.13 38.12 38.13 100 0 138.12-38.16 38.17-100 38.17-138.16 0l-506.06-506.05c-38.16-38.17-38.16-100 0-138.17" style="fill:#3eb9e2;fill-opacity:1;fill-rule:nonzero;stroke:none" transform="matrix(-.13333 0 0 -.13333 720 480)"/><path d="M2850.98 1134.34c0 81.75-66.25 148-147.97 148s-147.93-66.25-147.93-148c0-81.68 66.21-147.93 147.93-147.93s147.97 66.25 147.97 147.93m1529.14 1591.48c0 66.68-54.07 120.74-120.74 120.74-66.68 0-120.71-54.06-120.71-120.74 0-66.64 54.03-120.7 120.71-120.7 66.67 0 120.74 54.06 120.74 120.7" style="fill:#254752;fill-opacity:1;fill-rule:nonzero;stroke:none" transform="matrix(-.13333 0 0 -.13333 720 480)"/><path d="M3452.3 1648.83c0 132.11-107.07 239.18-239.18 239.18-132.07 0-239.17-107.07-239.17-239.18 0-132.07 107.1-239.18 239.17-239.18 132.11 0 239.18 107.11 239.18 239.18" style="fill:#307288;fill-opacity:1;fill-rule:nonzero;stroke:none" transform="matrix(-.13333 0 0 -.13333 720 480)"/><path d="M1939.53 985.898c-38.16 38.122-100 38.122-138.16 0l-37.35-37.378c-38.16-38.129-38.16-100 0-138.129 38.13-38.161 99.96-38.161 138.13 0l37.38 37.339c38.13 38.168 38.13 100 0 138.168" style="fill:#3eb9e2;fill-opacity:1;fill-rule:nonzero;stroke:none" transform="matrix(-.13333 0 0 -.13333 720 480)"/></svg>
