<?xml version="1.0" encoding="UTF-8" standalone="no"?>
<svg
   xml:space="preserve"
   width="720"
   height="480"
   version="1.1"
   id="svg18"
   sodipodi:docname="blue-mob3.svg"
   inkscape:version="1.4 (86a8ad7, 2024-10-11)"
   xmlns:inkscape="http://www.inkscape.org/namespaces/inkscape"
   xmlns:sodipodi="http://sodipodi.sourceforge.net/DTD/sodipodi-0.dtd"
   xmlns="http://www.w3.org/2000/svg"
   xmlns:svg="http://www.w3.org/2000/svg"><defs
   id="defs18" /><sodipodi:namedview
   id="namedview18"
   pagecolor="#ffffff"
   bordercolor="#000000"
   borderopacity="0.25"
   inkscape:showpageshadow="2"
   inkscape:pageopacity="0.0"
   inkscape:pagecheckerboard="0"
   inkscape:deskcolor="#d1d1d1"
   inkscape:zoom="1.683798"
   inkscape:cx="446.60939"
   inkscape:cy="190.3435"
   inkscape:window-width="2560"
   inkscape:window-height="1361"
   inkscape:window-x="-9"
   inkscape:window-y="-9"
   inkscape:window-maximized="1"
   inkscape:current-layer="svg18" />
<g
   transform="rotate(180,392.98593,209.92024)"
   id="g18">
<path
   d="M -503.33898,445.43273 H 4910.024 l -4.4543,3604.45437 H -494.43033 Z"
   style="fill:#1d373f;fill-opacity:1;fill-rule:nonzero;stroke:none"
   transform="matrix(-0.13333,0,0,-0.13333,720,480)"
   id="path1"
   sodipodi:nodetypes="ccccc" />
<path
   id="path2"
   style="fill:#254752;fill-opacity:1;fill-rule:nonzero;stroke:none;stroke-width:0.139565"
   d="m 123.45416,78.734307 c 6.69757,0 13.39696,-2.555163 18.50854,-7.666739 10.21616,-10.216169 10.21616,-26.789167 0,-37.010926 L 8.1975001,-99.708528 c -10.2161809,-10.216182 -26.7898181,-10.216182 -37.0129711,0 -10.221758,10.221745 -10.221758,26.793907 0,37.017057 L 104.94972,71.067568 c 5.11088,5.111576 11.80688,7.666739 18.50444,7.666739 z"
   inkscape:transform-center-x="10.096223"
   inkscape:transform-center-y="3.5633728" />
<path
   d="m 334.35346,394.745 c 7.41347,-7.42127 19.4368,-7.42127 26.8561,0 l 41.39142,41.38364 c 7.41931,7.41929 7.41931,19.44262 0,26.86193 -7.4193,7.41346 -19.44262,7.41346 -26.86193,0 l -41.38559,-41.39141 c -7.4193,-7.41932 -7.4193,-19.44263 0,-26.85416"
   style="fill:#3eb9e2;fill-opacity:1;fill-rule:nonzero;stroke:none;stroke-width:0.194426"
   id="path3"
   sodipodi:nodetypes="ccccccc" />
<path
   d="m -200.72659,301.22384 c 10.05708,-10.05708 26.35934,-10.05708 36.41642,0 L 5.1642594,470.69827 c 10.0570796,10.05708 10.0570796,26.35934 0,36.41642 -10.05708,10.05709 -26.3593404,10.05709 -36.4164204,0 L -200.72659,337.64026 c -10.05708,-10.05708 -10.05708,-26.35934 0,-36.41642"
   style="fill:#307288;fill-opacity:1;fill-rule:nonzero;stroke:none;stroke-width:0.13333"
   id="path4" />

<path
   id="path6"
   style="fill:#3eb9e2;fill-opacity:1;fill-rule:nonzero;stroke:none;stroke-width:0.142097"
   d="M 283.02027,421.20478 2.6472226,126.76728 H -117.60864 v 294.4375 z" /><path
   id="path6-0"
   style="fill:#3eb9e2;fill-opacity:1;fill-rule:nonzero;stroke:none;stroke-width:0.0966562"
   d="m 761.09728,602.01379 c 2.358,0 4.71554,-0.94339 6.51519,-2.83112 3.59637,-3.78099 3.59637,-9.90565 0,-13.6867 L 656.76785,469.09271 c -3.59643,-3.77713 -9.4313,-3.77713 -13.02773,0 -3.59926,3.7794 -3.59926,9.90462 0,13.68402 l 110.84064,116.40594 c 1.79965,1.88773 4.15852,2.83112 6.51652,2.83112 z" />


<path
   d="m 217.59204,332.3629 c -12.31703,12.31702 -32.30053,12.31702 -44.61889,0 L -15.052813,144.33694 c -12.322359,-12.32236 -12.322359,-32.30186 0,-44.624222 12.3223589,-12.322358 32.301859,-12.322358 44.618884,0 L 217.59204,287.73868 c 12.32236,12.32369 12.32236,32.30186 0,44.62422"
   style="fill:#307288;fill-opacity:1;fill-rule:nonzero;stroke:none;stroke-width:0.13333"
   id="path9" />
<path
   d="m -13.895843,204.22952 c 5.083872,-5.08788 13.33299899,-5.08788 18.416872,0 l 99.954831,99.95083 c 5.08388,5.08921 5.08388,13.333 0,18.42221 -5.087869,5.08787 -13.332997,5.08787 -18.415537,0 l -99.956166,-99.95617 c -5.087873,-5.08787 -5.087873,-13.32767 0,-18.41687"
   style="fill:#254752;fill-opacity:1;fill-rule:nonzero;stroke:none;stroke-width:0.13333"
   id="path10" /><path
   d="m 512.9913,456.2422 c 3.67013,-3.67302 9.62531,-3.67302 13.29545,0 l 72.15906,72.15619 c 3.67014,3.67398 3.67014,9.62531 0,13.2993 -3.67301,3.67302 -9.62531,3.67302 -13.29448,0 L 512.9913,469.53765 c -3.67303,-3.67302 -3.67303,-9.62147 0,-13.29545"
   style="fill:#254752;fill-opacity:1;fill-rule:nonzero;stroke:none;stroke-width:0.0962532"
   id="path10-8"
   sodipodi:nodetypes="ccccccc" />




<path
   d="m 284.4596,280.29585 c -6.76265,6.76796 -17.73575,6.76796 -24.4984,0 l -89.75888,-89.76064 c -6.76264,-6.76087 -6.76264,-17.73575 0,-24.49662 6.76798,-6.76975 17.73576,-6.76975 24.50373,0 l 89.75355,89.75177 c 6.76796,6.76974 6.76796,17.73575 0,24.50549"
   style="fill:#3eb9e2;fill-opacity:1;fill-rule:nonzero;stroke:none;stroke-width:0.177358"
   id="path15"
   sodipodi:nodetypes="ccccccc" />
<path
   id="path16"
   style="fill:#254752;fill-opacity:1;fill-rule:nonzero;stroke:none;stroke-width:0.197281"
   d="m 296.41299,369.62366 c 13.15468,0 23.81587,-10.66621 23.81587,-23.81299 0,-13.15469 -10.66119,-23.81878 -23.81587,-23.81878 -13.1527,0 -23.81877,10.66409 -23.81877,23.81878 0,13.14678 10.66607,23.81299 23.81877,23.81299 z" /><path
   id="path16-9"
   style="fill:#254752;fill-opacity:1;fill-rule:nonzero;stroke:none;stroke-width:0.0951981"
   d="m 210.46435,501.8407 c 7.77958,0 14.08344,-6.30627 14.08344,-14.08205 0,-7.78244 -6.30386,-14.08902 -14.08344,-14.08902 -7.77959,0 -14.08623,6.30658 -14.08623,14.08902 0,7.77578 6.30664,14.08205 14.08623,14.08205 z" />
<path
   d="m -123.35803,124.75333 c 0,-13.67781 11.08532,-24.763127 24.763135,-24.763127 13.67365,0 24.76208,11.085317 24.76208,24.763127 0,13.67365 -11.08843,24.76312 -24.76208,24.76312 -13.677815,0 -24.763135,-11.08947 -24.763135,-24.76312"
   style="fill:#307288;fill-opacity:1;fill-rule:nonzero;stroke:none;stroke-width:0.103533"
   id="path17" /><path
   d="m 130.12248,393.60399 c 0,-8.59322 6.96447,-15.5577 15.55773,-15.5577 8.59064,0 15.55706,6.96448 15.55706,15.5577 0,8.59064 -6.96642,15.55773 -15.55706,15.55773 -8.59326,0 -15.55773,-6.96709 -15.55773,-15.55773"
   style="fill:#307288;fill-opacity:1;fill-rule:nonzero;stroke:none;stroke-width:0.065046"
   id="path17-4" /><path
   d="m 117.52856,130.06496 c 0,-9.2493 7.49621,-16.74553 16.74554,-16.74553 9.24653,0 16.74483,7.49623 16.74483,16.74553 0,9.24652 -7.4983,16.74554 -16.74483,16.74554 -9.24933,0 -16.74554,-7.49902 -16.74554,-16.74554"
   style="fill:#307288;fill-opacity:1;fill-rule:nonzero;stroke:none;stroke-width:0.0700122"
   id="path17-4-2" />
<path
   d="m -13.120021,432.88337 c 5.08788,-5.0828 13.33299965,-5.0828 18.4208797,0 l 4.9798703,4.98361 c 5.08788,5.08374 5.08788,13.333 0,18.41674 -5.0838703,5.08801 -13.32766,5.08801 -18.41687,0 l -4.98388,-4.9784 c -5.08387,-5.08895 -5.08387,-13.33301 0,-18.42195"
   style="fill:#3eb9e2;fill-opacity:1;fill-rule:nonzero;stroke:none;stroke-width:0.13333"
   id="path18" />
</g>
<path
   id="path12"
   style="fill:#307288;fill-opacity:1;fill-rule:nonzero;stroke:none;stroke-width:0.218981"
   d="m 400.22903,-166.56773 c -7.42079,0.21483 -14.3084,5.57924 -16.35334,12.71247 -2.01427,6.44007 0.0629,13.86533 5.0651,18.38068 57.87213,57.857664 115.71726,115.742716 173.60588,173.583392 5.33845,5.172925 14.00742,6.330974 20.53629,2.793987 6.30645,-3.209298 10.22549,-10.419099 9.4983,-17.45681 -0.3789,-4.708917 -2.81536,-9.073456 -6.32258,-12.183207 -57.67852,-57.663086 -115.33031,-115.353422 -173.02525,-172.999572 -3.44512,-3.28702 -8.25224,-5.05263 -13.0044,-4.83094 z" /><path
   id="path12-8"
   style="fill:#307288;fill-opacity:1;fill-rule:nonzero;stroke:none;stroke-width:0.421327"
   d="m 32.510461,-279.37904 c -14.27792,0.41336 -27.5299542,10.73469 -31.4645051,24.45933 -3.8755621,12.39093 0.1208464,26.67743 9.7454361,35.36515 111.348348,111.32052 222.644758,222.6937699 334.024808,333.9816 10.27142,9.95293 26.95087,12.18105 39.51267,5.37574 12.13389,-6.17483 19.67427,-20.046755 18.27511,-33.5876 C 401.87495,77.15504 397.18714,68.75749 390.43912,62.7742 279.46328,-48.171992 168.53884,-159.17056 57.531459,-270.08409 c -6.628577,-6.32436 -15.877687,-9.72146 -25.020998,-9.29495 z" /></svg>
