<svg id="visual" viewBox="0 0 2560 4320" width="2560" height="4320" xmlns="http://www.w3.org/2000/svg" xmlns:xlink="http://www.w3.org/1999/xlink" version="1.1"><path d="M0 347L32.8 339.7C65.7 332.3 131.3 317.7 197 317.7C262.7 317.7 328.3 332.3 394 310.8C459.7 289.3 525.3 231.7 591 202.8C656.7 174 722.3 174 788 188.3C853.7 202.7 919.3 231.3 985 245.7C1050.7 260 1116.3 260 1181.8 281.7C1247.3 303.3 1312.7 346.7 1378.2 361.2C1443.7 375.7 1509.3 361.3 1575 361.3C1640.7 361.3 1706.3 375.7 1772 368.3C1837.7 361 1903.3 332 1969 303.2C2034.7 274.3 2100.3 245.7 2166 231.3C2231.7 217 2297.3 217 2363 245.8C2428.7 274.7 2494.3 332.3 2527.2 361.2L2560 390L2560 0L2527.2 0C2494.3 0 2428.7 0 2363 0C2297.3 0 2231.7 0 2166 0C2100.3 0 2034.7 0 1969 0C1903.3 0 1837.7 0 1772 0C1706.3 0 1640.7 0 1575 0C1509.3 0 1443.7 0 1378.2 0C1312.7 0 1247.3 0 1181.8 0C1116.3 0 1050.7 0 985 0C919.3 0 853.7 0 788 0C722.3 0 656.7 0 591 0C525.3 0 459.7 0 394 0C328.3 0 262.7 0 197 0C131.3 0 65.7 0 32.8 0L0 0Z" fill="#a5b9d8"></path><path d="M0 563L32.8 555.7C65.7 548.3 131.3 533.7 197 533.7C262.7 533.7 328.3 548.3 394 534C459.7 519.7 525.3 476.3 591 447.5C656.7 418.7 722.3 404.3 788 418.7C853.7 433 919.3 476 985 490.3C1050.7 504.7 1116.3 490.3 1181.8 490.3C1247.3 490.3 1312.7 504.7 1378.2 504.7C1443.7 504.7 1509.3 490.3 1575 490.3C1640.7 490.3 1706.3 504.7 1772 504.7C1837.7 504.7 1903.3 490.3 1969 476C2034.7 461.7 2100.3 447.3 2166 433C2231.7 418.7 2297.3 404.3 2363 426C2428.7 447.7 2494.3 505.3 2527.2 534.2L2560 563L2560 388L2527.2 359.2C2494.3 330.3 2428.7 272.7 2363 243.8C2297.3 215 2231.7 215 2166 229.3C2100.3 243.7 2034.7 272.3 1969 301.2C1903.3 330 1837.7 359 1772 366.3C1706.3 373.7 1640.7 359.3 1575 359.3C1509.3 359.3 1443.7 373.7 1378.2 359.2C1312.7 344.7 1247.3 301.3 1181.8 279.7C1116.3 258 1050.7 258 985 243.7C919.3 229.3 853.7 200.7 788 186.3C722.3 172 656.7 172 591 200.8C525.3 229.7 459.7 287.3 394 308.8C328.3 330.3 262.7 315.7 197 315.7C131.3 315.7 65.7 330.3 32.8 337.7L0 345Z" fill="#8ba0c1"></path><path d="M0 735L32.8 720.7C65.7 706.3 131.3 677.7 197 663.3C262.7 649 328.3 649 394 634.7C459.7 620.3 525.3 591.7 591 577.3C656.7 563 722.3 563 788 591.7C853.7 620.3 919.3 677.7 985 684.8C1050.7 692 1116.3 649 1181.8 649C1247.3 649 1312.7 692 1378.2 699.2C1443.7 706.3 1509.3 677.7 1575 677.7C1640.7 677.7 1706.3 706.3 1772 692C1837.7 677.7 1903.3 620.3 1969 606C2034.7 591.7 2100.3 620.3 2166 613C2231.7 605.7 2297.3 562.3 2363 562.3C2428.7 562.3 2494.3 605.7 2527.2 627.3L2560 649L2560 561L2527.2 532.2C2494.3 503.3 2428.7 445.7 2363 424C2297.3 402.3 2231.7 416.7 2166 431C2100.3 445.3 2034.7 459.7 1969 474C1903.3 488.3 1837.7 502.7 1772 502.7C1706.3 502.7 1640.7 488.3 1575 488.3C1509.3 488.3 1443.7 502.7 1378.2 502.7C1312.7 502.7 1247.3 488.3 1181.8 488.3C1116.3 488.3 1050.7 502.7 985 488.3C919.3 474 853.7 431 788 416.7C722.3 402.3 656.7 416.7 591 445.5C525.3 474.3 459.7 517.7 394 532C328.3 546.3 262.7 531.7 197 531.7C131.3 531.7 65.7 546.3 32.8 553.7L0 561Z" fill="#7288aa"></path><path d="M0 1556L32.8 1512.8C65.7 1469.7 131.3 1383.3 197 1441C262.7 1498.7 328.3 1700.3 394 1686C459.7 1671.7 525.3 1441.3 591 1340.5C656.7 1239.7 722.3 1268.3 788 1282.7C853.7 1297 919.3 1297 985 1318.7C1050.7 1340.3 1116.3 1383.7 1181.8 1484.5C1247.3 1585.3 1312.7 1743.7 1378.2 1750.8C1443.7 1758 1509.3 1614 1575 1614C1640.7 1614 1706.3 1758 1772 1750.8C1837.7 1743.7 1903.3 1585.3 1969 1491.7C2034.7 1398 2100.3 1369 2166 1311.3C2231.7 1253.7 2297.3 1167.3 2363 1153C2428.7 1138.7 2494.3 1196.3 2527.2 1225.2L2560 1254L2560 647L2527.2 625.3C2494.3 603.7 2428.7 560.3 2363 560.3C2297.3 560.3 2231.7 603.7 2166 611C2100.3 618.3 2034.7 589.7 1969 604C1903.3 618.3 1837.7 675.7 1772 690C1706.3 704.3 1640.7 675.7 1575 675.7C1509.3 675.7 1443.7 704.3 1378.2 697.2C1312.7 690 1247.3 647 1181.8 647C1116.3 647 1050.7 690 985 682.8C919.3 675.7 853.7 618.3 788 589.7C722.3 561 656.7 561 591 575.3C525.3 589.7 459.7 618.3 394 632.7C328.3 647 262.7 647 197 661.3C131.3 675.7 65.7 704.3 32.8 718.7L0 733Z" fill="#597093"></path><path d="M0 1729L32.8 1685.8C65.7 1642.7 131.3 1556.3 197 1621.2C262.7 1686 328.3 1902 394 1894.8C459.7 1887.7 525.3 1657.3 591 1549.3C656.7 1441.3 722.3 1455.7 788 1455.7C853.7 1455.7 919.3 1441.3 985 1462.8C1050.7 1484.3 1116.3 1541.7 1181.8 1656.8C1247.3 1772 1312.7 1945 1378.2 1959.5C1443.7 1974 1509.3 1830 1575 1822.8C1640.7 1815.7 1706.3 1945.3 1772 1930.8C1837.7 1916.3 1903.3 1757.7 1969 1678.3C2034.7 1599 2100.3 1599 2166 1555.8C2231.7 1512.7 2297.3 1426.3 2363 1390.3C2428.7 1354.3 2494.3 1368.7 2527.2 1375.8L2560 1383L2560 1252L2527.2 1223.2C2494.3 1194.3 2428.7 1136.7 2363 1151C2297.3 1165.3 2231.7 1251.7 2166 1309.3C2100.3 1367 2034.7 1396 1969 1489.7C1903.3 1583.3 1837.7 1741.7 1772 1748.8C1706.3 1756 1640.7 1612 1575 1612C1509.3 1612 1443.7 1756 1378.2 1748.8C1312.7 1741.7 1247.3 1583.3 1181.8 1482.5C1116.3 1381.7 1050.7 1338.3 985 1316.7C919.3 1295 853.7 1295 788 1280.7C722.3 1266.3 656.7 1237.7 591 1338.5C525.3 1439.3 459.7 1669.7 394 1684C328.3 1698.3 262.7 1496.7 197 1439C131.3 1381.3 65.7 1467.7 32.8 1510.8L0 1554Z" fill="#415a7e"></path><path d="M0 2204L32.8 2175.2C65.7 2146.3 131.3 2088.7 197 2146.3C262.7 2204 328.3 2377 394 2333.8C459.7 2290.7 525.3 2031.3 591 1916.2C656.7 1801 722.3 1830 788 1866C853.7 1902 919.3 1945 985 1981C1050.7 2017 1116.3 2046 1181.8 2110.8C1247.3 2175.7 1312.7 2276.3 1378.2 2305C1443.7 2333.7 1509.3 2290.3 1575 2283.2C1640.7 2276 1706.3 2305 1772 2247.5C1837.7 2190 1903.3 2046 1969 1966.8C2034.7 1887.7 2100.3 1873.3 2166 1844.5C2231.7 1815.7 2297.3 1772.3 2363 1743.5C2428.7 1714.7 2494.3 1700.3 2527.2 1693.2L2560 1686L2560 1381L2527.2 1373.8C2494.3 1366.7 2428.7 1352.3 2363 1388.3C2297.3 1424.3 2231.7 1510.7 2166 1553.8C2100.3 1597 2034.7 1597 1969 1676.3C1903.3 1755.7 1837.7 1914.3 1772 1928.8C1706.3 1943.3 1640.7 1813.7 1575 1820.8C1509.3 1828 1443.7 1972 1378.2 1957.5C1312.7 1943 1247.3 1770 1181.8 1654.8C1116.3 1539.7 1050.7 1482.3 985 1460.8C919.3 1439.3 853.7 1453.7 788 1453.7C722.3 1453.7 656.7 1439.3 591 1547.3C525.3 1655.3 459.7 1885.7 394 1892.8C328.3 1900 262.7 1684 197 1619.2C131.3 1554.3 65.7 1640.7 32.8 1683.8L0 1727Z" fill="#375175"></path><path d="M0 2982L32.8 2974.8C65.7 2967.7 131.3 2953.3 197 2982.2C262.7 3011 328.3 3083 394 3039.7C459.7 2996.3 525.3 2837.7 591 2780C656.7 2722.3 722.3 2765.7 788 2830.5C853.7 2895.3 919.3 2981.7 985 2996C1050.7 3010.3 1116.3 2952.7 1181.8 2952.7C1247.3 2952.7 1312.7 3010.3 1378.2 3024.8C1443.7 3039.3 1509.3 3010.7 1575 2981.8C1640.7 2953 1706.3 2924 1772 2909.5C1837.7 2895 1903.3 2895 1969 2895C2034.7 2895 2100.3 2895 2166 2844.7C2231.7 2794.3 2297.3 2693.7 2363 2679.3C2428.7 2665 2494.3 2737 2527.2 2773L2560 2809L2560 1684L2527.2 1691.2C2494.3 1698.3 2428.7 1712.7 2363 1741.5C2297.3 1770.3 2231.7 1813.7 2166 1842.5C2100.3 1871.3 2034.7 1885.7 1969 1964.8C1903.3 2044 1837.7 2188 1772 2245.5C1706.3 2303 1640.7 2274 1575 2281.2C1509.3 2288.3 1443.7 2331.7 1378.2 2303C1312.7 2274.3 1247.3 2173.7 1181.8 2108.8C1116.3 2044 1050.7 2015 985 1979C919.3 1943 853.7 1900 788 1864C722.3 1828 656.7 1799 591 1914.2C525.3 2029.3 459.7 2288.7 394 2331.8C328.3 2375 262.7 2202 197 2144.3C131.3 2086.7 65.7 2144.3 32.8 2173.2L0 2202Z" fill="#375175"></path><path d="M0 3284L32.8 3262.5C65.7 3241 131.3 3198 197 3219.7C262.7 3241.3 328.3 3327.7 394 3284.3C459.7 3241 525.3 3068 591 2988.8C656.7 2909.7 722.3 2924.3 788 2974.8C853.7 3025.3 919.3 3111.7 985 3126C1050.7 3140.3 1116.3 3082.7 1181.8 3082.7C1247.3 3082.7 1312.7 3140.3 1378.2 3162C1443.7 3183.7 1509.3 3169.3 1575 3140.5C1640.7 3111.7 1706.3 3068.3 1772 3046.7C1837.7 3025 1903.3 3025 1969 3046.7C2034.7 3068.3 2100.3 3111.7 2166 3090C2231.7 3068.3 2297.3 2981.7 2363 2960C2428.7 2938.3 2494.3 2981.7 2527.2 3003.3L2560 3025L2560 2807L2527.2 2771C2494.3 2735 2428.7 2663 2363 2677.3C2297.3 2691.7 2231.7 2792.3 2166 2842.7C2100.3 2893 2034.7 2893 1969 2893C1903.3 2893 1837.7 2893 1772 2907.5C1706.3 2922 1640.7 2951 1575 2979.8C1509.3 3008.7 1443.7 3037.3 1378.2 3022.8C1312.7 3008.3 1247.3 2950.7 1181.8 2950.7C1116.3 2950.7 1050.7 3008.3 985 2994C919.3 2979.7 853.7 2893.3 788 2828.5C722.3 2763.7 656.7 2720.3 591 2778C525.3 2835.7 459.7 2994.3 394 3037.7C328.3 3081 262.7 3009 197 2980.2C131.3 2951.3 65.7 2965.7 32.8 2972.8L0 2980Z" fill="#415a7e"></path><path d="M0 3414L32.8 3399.5C65.7 3385 131.3 3356 197 3377.5C262.7 3399 328.3 3471 394 3420.7C459.7 3370.3 525.3 3197.7 591 3140.2C656.7 3082.7 722.3 3140.3 788 3212.3C853.7 3284.3 919.3 3370.7 985 3370.7C1050.7 3370.7 1116.3 3284.3 1181.8 3284.3C1247.3 3284.3 1312.7 3370.7 1378.2 3399.5C1443.7 3428.3 1509.3 3399.7 1575 3356.5C1640.7 3313.3 1706.3 3255.7 1772 3255.7C1837.7 3255.7 1903.3 3313.3 1969 3334.8C2034.7 3356.3 2100.3 3341.7 2166 3298.3C2231.7 3255 2297.3 3183 2363 3175.8C2428.7 3168.7 2494.3 3226.3 2527.2 3255.2L2560 3284L2560 3023L2527.2 3001.3C2494.3 2979.7 2428.7 2936.3 2363 2958C2297.3 2979.7 2231.7 3066.3 2166 3088C2100.3 3109.7 2034.7 3066.3 1969 3044.7C1903.3 3023 1837.7 3023 1772 3044.7C1706.3 3066.3 1640.7 3109.7 1575 3138.5C1509.3 3167.3 1443.7 3181.7 1378.2 3160C1312.7 3138.3 1247.3 3080.7 1181.8 3080.7C1116.3 3080.7 1050.7 3138.3 985 3124C919.3 3109.7 853.7 3023.3 788 2972.8C722.3 2922.3 656.7 2907.7 591 2986.8C525.3 3066 459.7 3239 394 3282.3C328.3 3325.7 262.7 3239.3 197 3217.7C131.3 3196 65.7 3239 32.8 3260.5L0 3282Z" fill="#597093"></path><path d="M0 3846L32.8 3802.8C65.7 3759.7 131.3 3673.3 197 3680.5C262.7 3687.7 328.3 3788.3 394 3766.7C459.7 3745 525.3 3601 591 3565C656.7 3529 722.3 3601 788 3658.7C853.7 3716.3 919.3 3759.7 985 3752.5C1050.7 3745.3 1116.3 3687.7 1181.8 3673.2C1247.3 3658.7 1312.7 3687.3 1378.2 3687.3C1443.7 3687.3 1509.3 3658.7 1575 3622.7C1640.7 3586.7 1706.3 3543.3 1772 3572.2C1837.7 3601 1903.3 3702 1969 3702C2034.7 3702 2100.3 3601 2166 3536.2C2231.7 3471.3 2297.3 3442.7 2363 3449.8C2428.7 3457 2494.3 3500 2527.2 3521.5L2560 3543L2560 3282L2527.2 3253.2C2494.3 3224.3 2428.7 3166.7 2363 3173.8C2297.3 3181 2231.7 3253 2166 3296.3C2100.3 3339.7 2034.7 3354.3 1969 3332.8C1903.3 3311.3 1837.7 3253.7 1772 3253.7C1706.3 3253.7 1640.7 3311.3 1575 3354.5C1509.3 3397.7 1443.7 3426.3 1378.2 3397.5C1312.7 3368.7 1247.3 3282.3 1181.8 3282.3C1116.3 3282.3 1050.7 3368.7 985 3368.7C919.3 3368.7 853.7 3282.3 788 3210.3C722.3 3138.3 656.7 3080.7 591 3138.2C525.3 3195.7 459.7 3368.3 394 3418.7C328.3 3469 262.7 3397 197 3375.5C131.3 3354 65.7 3383 32.8 3397.5L0 3412Z" fill="#7288aa"></path><path d="M0 4148L32.8 4162.5C65.7 4177 131.3 4206 197 4213.2C262.7 4220.3 328.3 4205.7 394 4184C459.7 4162.3 525.3 4133.7 591 4126.5C656.7 4119.3 722.3 4133.7 788 4148C853.7 4162.3 919.3 4176.7 985 4176.7C1050.7 4176.7 1116.3 4162.3 1181.8 4148C1247.3 4133.7 1312.7 4119.3 1378.2 4119.3C1443.7 4119.3 1509.3 4133.7 1575 4133.7C1640.7 4133.7 1706.3 4119.3 1772 4126.5C1837.7 4133.7 1903.3 4162.3 1969 4176.7C2034.7 4191 2100.3 4191 2166 4176.7C2231.7 4162.3 2297.3 4133.7 2363 4119.3C2428.7 4105 2494.3 4105 2527.2 4105L2560 4105L2560 3541L2527.2 3519.5C2494.3 3498 2428.7 3455 2363 3447.8C2297.3 3440.7 2231.7 3469.3 2166 3534.2C2100.3 3599 2034.7 3700 1969 3700C1903.3 3700 1837.7 3599 1772 3570.2C1706.3 3541.3 1640.7 3584.7 1575 3620.7C1509.3 3656.7 1443.7 3685.3 1378.2 3685.3C1312.7 3685.3 1247.3 3656.7 1181.8 3671.2C1116.3 3685.7 1050.7 3743.3 985 3750.5C919.3 3757.7 853.7 3714.3 788 3656.7C722.3 3599 656.7 3527 591 3563C525.3 3599 459.7 3743 394 3764.7C328.3 3786.3 262.7 3685.7 197 3678.5C131.3 3671.3 65.7 3757.7 32.8 3800.8L0 3844Z" fill="#8ba0c1"></path><path d="M0 4321L32.8 4321C65.7 4321 131.3 4321 197 4321C262.7 4321 328.3 4321 394 4321C459.7 4321 525.3 4321 591 4321C656.7 4321 722.3 4321 788 4321C853.7 4321 919.3 4321 985 4321C1050.7 4321 1116.3 4321 1181.8 4321C1247.3 4321 1312.7 4321 1378.2 4321C1443.7 4321 1509.3 4321 1575 4321C1640.7 4321 1706.3 4321 1772 4321C1837.7 4321 1903.3 4321 1969 4321C2034.7 4321 2100.3 4321 2166 4321C2231.7 4321 2297.3 4321 2363 4321C2428.7 4321 2494.3 4321 2527.2 4321L2560 4321L2560 4103L2527.2 4103C2494.3 4103 2428.7 4103 2363 4117.3C2297.3 4131.7 2231.7 4160.3 2166 4174.7C2100.3 4189 2034.7 4189 1969 4174.7C1903.3 4160.3 1837.7 4131.7 1772 4124.5C1706.3 4117.3 1640.7 4131.7 1575 4131.7C1509.3 4131.7 1443.7 4117.3 1378.2 4117.3C1312.7 4117.3 1247.3 4131.7 1181.8 4146C1116.3 4160.3 1050.7 4174.7 985 4174.7C919.3 4174.7 853.7 4160.3 788 4146C722.3 4131.7 656.7 4117.3 591 4124.5C525.3 4131.7 459.7 4160.3 394 4182C328.3 4203.7 262.7 4218.3 197 4211.2C131.3 4204 65.7 4175 32.8 4160.5L0 4146Z" fill="#a5b9d8"></path></svg>