<svg id="visual" viewBox="0 0 2560 4320" width="2560" height="4320" xmlns="http://www.w3.org/2000/svg" xmlns:xlink="http://www.w3.org/1999/xlink" version="1.1"><path d="M0 347L213.3 368.5C426.7 390 853.3 433 1280 404.2C1706.7 375.3 2133.3 274.7 2346.7 224.3L2560 174L2560 0L2346.7 0C2133.3 0 1706.7 0 1280 0C853.3 0 426.7 0 213.3 0L0 0Z" fill="#8197bc"></path><path d="M0 563L213.3 584.5C426.7 606 853.3 649 1280 620.2C1706.7 591.3 2133.3 490.7 2346.7 440.3L2560 390L2560 172L2346.7 222.3C2133.3 272.7 1706.7 373.3 1280 402.2C853.3 431 426.7 388 213.3 366.5L0 345Z" fill="#879dc1"></path><path d="M0 1124L213.3 1088C426.7 1052 853.3 980 1280 929.7C1706.7 879.3 2133.3 850.7 2346.7 836.3L2560 822L2560 388L2346.7 438.3C2133.3 488.7 1706.7 589.3 1280 618.2C853.3 647 426.7 604 213.3 582.5L0 561Z" fill="#8ea3c6"></path><path d="M0 1254L213.3 1232.3C426.7 1210.7 853.3 1167.3 1280 1138.5C1706.7 1109.7 2133.3 1095.3 2346.7 1088.2L2560 1081L2560 820L2346.7 834.3C2133.3 848.7 1706.7 877.3 1280 927.7C853.3 978 426.7 1050 213.3 1086L0 1122Z" fill="#94a9cb"></path><path d="M0 1859L213.3 1808.5C426.7 1758 853.3 1657 1280 1556.2C1706.7 1455.3 2133.3 1354.7 2346.7 1304.3L2560 1254L2560 1079L2346.7 1086.2C2133.3 1093.3 1706.7 1107.7 1280 1136.5C853.3 1165.3 426.7 1208.7 213.3 1230.3L0 1252Z" fill="#9bb0d0"></path><path d="M0 2031L213.3 1995C426.7 1959 853.3 1887 1280 1786.3C1706.7 1685.7 2133.3 1556.3 2346.7 1491.7L2560 1427L2560 1252L2346.7 1302.3C2133.3 1352.7 1706.7 1453.3 1280 1554.2C853.3 1655 426.7 1756 213.3 1806.5L0 1857Z" fill="#a2b6d5"></path><path d="M0 2679L213.3 2621.5C426.7 2564 853.3 2449 1280 2413C1706.7 2377 2133.3 2420 2346.7 2441.5L2560 2463L2560 1425L2346.7 1489.7C2133.3 1554.3 1706.7 1683.7 1280 1784.3C853.3 1885 426.7 1957 213.3 1993L0 2029Z" fill="#a8bbd9"></path><path d="M0 2982L213.3 2888.3C426.7 2794.7 853.3 2607.3 1280 2556.8C1706.7 2506.3 2133.3 2592.7 2346.7 2635.8L2560 2679L2560 2461L2346.7 2439.5C2133.3 2418 1706.7 2375 1280 2411C853.3 2447 426.7 2562 213.3 2619.5L0 2677Z" fill="#adbfdb"></path><path d="M0 3155L213.3 3061.3C426.7 2967.7 853.3 2780.3 1280 2751.5C1706.7 2722.7 2133.3 2852.3 2346.7 2917.2L2560 2982L2560 2677L2346.7 2633.8C2133.3 2590.7 1706.7 2504.3 1280 2554.8C853.3 2605.3 426.7 2792.7 213.3 2886.3L0 2980Z" fill="#b2c2dd"></path><path d="M0 4062L213.3 4011.5C426.7 3961 853.3 3860 1280 3824C1706.7 3788 2133.3 3817 2346.7 3831.5L2560 3846L2560 2980L2346.7 2915.2C2133.3 2850.3 1706.7 2720.7 1280 2749.5C853.3 2778.3 426.7 2965.7 213.3 3059.3L0 3153Z" fill="#b8c6e0"></path><path d="M0 4191L213.3 4191C426.7 4191 853.3 4191 1280 4198.3C1706.7 4205.7 2133.3 4220.3 2346.7 4227.7L2560 4235L2560 3844L2346.7 3829.5C2133.3 3815 1706.7 3786 1280 3822C853.3 3858 426.7 3959 213.3 4009.5L0 4060Z" fill="#bdcae2"></path><path d="M0 4321L213.3 4321C426.7 4321 853.3 4321 1280 4321C1706.7 4321 2133.3 4321 2346.7 4321L2560 4321L2560 4233L2346.7 4225.7C2133.3 4218.3 1706.7 4203.7 1280 4196.3C853.3 4189 426.7 4189 213.3 4189L0 4189Z" fill="#c2cee4"></path></svg>