<svg id="visual" viewBox="0 0 2560 4320" width="2560" height="4320" xmlns="http://www.w3.org/2000/svg" xmlns:xlink="http://www.w3.org/1999/xlink" version="1.1"><path d="M0 217L53.3 267.3C106.7 317.7 213.3 418.3 320 468.7C426.7 519 533.3 519 640 511.8C746.7 504.7 853.3 490.3 960 461.7C1066.7 433 1173.3 390 1280 390C1386.7 390 1493.3 433 1600 440.2C1706.7 447.3 1813.3 418.7 1920 433.2C2026.7 447.7 2133.3 505.3 2240 505.3C2346.7 505.3 2453.3 447.7 2506.7 418.8L2560 390L2560 0L2506.7 0C2453.3 0 2346.7 0 2240 0C2133.3 0 2026.7 0 1920 0C1813.3 0 1706.7 0 1600 0C1493.3 0 1386.7 0 1280 0C1173.3 0 1066.7 0 960 0C853.3 0 746.7 0 640 0C533.3 0 426.7 0 320 0C213.3 0 106.7 0 53.3 0L0 0Z" fill="#d3d8e0"></path><path d="M0 995L53.3 1016.5C106.7 1038 213.3 1081 320 1145.7C426.7 1210.3 533.3 1296.7 640 1296.7C746.7 1296.7 853.3 1210.3 960 1145.7C1066.7 1081 1173.3 1038 1280 1052.5C1386.7 1067 1493.3 1139 1600 1211C1706.7 1283 1813.3 1355 1920 1326.2C2026.7 1297.3 2133.3 1167.7 2240 1124.3C2346.7 1081 2453.3 1124 2506.7 1145.5L2560 1167L2560 388L2506.7 416.8C2453.3 445.7 2346.7 503.3 2240 503.3C2133.3 503.3 2026.7 445.7 1920 431.2C1813.3 416.7 1706.7 445.3 1600 438.2C1493.3 431 1386.7 388 1280 388C1173.3 388 1066.7 431 960 459.7C853.3 488.3 746.7 502.7 640 509.8C533.3 517 426.7 517 320 466.7C213.3 416.3 106.7 315.7 53.3 265.3L0 215Z" fill="#b0bed2"></path><path d="M0 1211L53.3 1239.7C106.7 1268.3 213.3 1325.7 320 1383.2C426.7 1440.7 533.3 1498.3 640 1491.2C746.7 1484 853.3 1412 960 1347.2C1066.7 1282.3 1173.3 1224.7 1280 1239.2C1386.7 1253.7 1493.3 1340.3 1600 1405.2C1706.7 1470 1813.3 1513 1920 1484.2C2026.7 1455.3 2133.3 1354.7 2240 1311.5C2346.7 1268.3 2453.3 1282.7 2506.7 1289.8L2560 1297L2560 1165L2506.7 1143.5C2453.3 1122 2346.7 1079 2240 1122.3C2133.3 1165.7 2026.7 1295.3 1920 1324.2C1813.3 1353 1706.7 1281 1600 1209C1493.3 1137 1386.7 1065 1280 1050.5C1173.3 1036 1066.7 1079 960 1143.7C853.3 1208.3 746.7 1294.7 640 1294.7C533.3 1294.7 426.7 1208.3 320 1143.7C213.3 1079 106.7 1036 53.3 1014.5L0 993Z" fill="#8ca6c4"></path><path d="M0 1427L53.3 1448.5C106.7 1470 213.3 1513 320 1585C426.7 1657 533.3 1758 640 1772.5C746.7 1787 853.3 1715 960 1643C1066.7 1571 1173.3 1499 1280 1513.3C1386.7 1527.7 1493.3 1628.3 1600 1671.5C1706.7 1714.7 1813.3 1700.3 1920 1642.7C2026.7 1585 2133.3 1484 2240 1455.2C2346.7 1426.3 2453.3 1469.7 2506.7 1491.3L2560 1513L2560 1295L2506.7 1287.8C2453.3 1280.7 2346.7 1266.3 2240 1309.5C2133.3 1352.7 2026.7 1453.3 1920 1482.2C1813.3 1511 1706.7 1468 1600 1403.2C1493.3 1338.3 1386.7 1251.7 1280 1237.2C1173.3 1222.7 1066.7 1280.3 960 1345.2C853.3 1410 746.7 1482 640 1489.2C533.3 1496.3 426.7 1438.7 320 1381.2C213.3 1323.7 106.7 1266.3 53.3 1237.7L0 1209Z" fill="#658eb5"></path><path d="M0 1815L53.3 1815C106.7 1815 213.3 1815 320 1872.7C426.7 1930.3 533.3 2045.7 640 2045.7C746.7 2045.7 853.3 1930.3 960 1880C1066.7 1829.7 1173.3 1844.3 1280 1894.8C1386.7 1945.3 1493.3 2031.7 1600 2082C1706.7 2132.3 1813.3 2146.7 1920 2081.8C2026.7 2017 2133.3 1873 2240 1837C2346.7 1801 2453.3 1873 2506.7 1909L2560 1945L2560 1511L2506.7 1489.3C2453.3 1467.7 2346.7 1424.3 2240 1453.2C2133.3 1482 2026.7 1583 1920 1640.7C1813.3 1698.3 1706.7 1712.7 1600 1669.5C1493.3 1626.3 1386.7 1525.7 1280 1511.3C1173.3 1497 1066.7 1569 960 1641C853.3 1713 746.7 1785 640 1770.5C533.3 1756 426.7 1655 320 1583C213.3 1511 106.7 1468 53.3 1446.5L0 1425Z" fill="#3478a7"></path><path d="M0 2161L53.3 2132.2C106.7 2103.3 213.3 2045.7 320 2096C426.7 2146.3 533.3 2304.7 640 2333.5C746.7 2362.3 853.3 2261.7 960 2211.3C1066.7 2161 1173.3 2161 1280 2182.7C1386.7 2204.3 1493.3 2247.7 1600 2276.5C1706.7 2305.3 1813.3 2319.7 1920 2262C2026.7 2204.3 2133.3 2074.7 2240 2060.2C2346.7 2045.7 2453.3 2146.3 2506.7 2196.7L2560 2247L2560 1943L2506.7 1907C2453.3 1871 2346.7 1799 2240 1835C2133.3 1871 2026.7 2015 1920 2079.8C1813.3 2144.7 1706.7 2130.3 1600 2080C1493.3 2029.7 1386.7 1943.3 1280 1892.8C1173.3 1842.3 1066.7 1827.7 960 1878C853.3 1928.3 746.7 2043.7 640 2043.7C533.3 2043.7 426.7 1928.3 320 1870.7C213.3 1813 106.7 1813 53.3 1813L0 1813Z" fill="#0f6fa1"></path><path d="M0 2334L53.3 2298C106.7 2262 213.3 2190 320 2233.2C426.7 2276.3 533.3 2434.7 640 2463.5C746.7 2492.3 853.3 2391.7 960 2348.5C1066.7 2305.3 1173.3 2319.7 1280 2355.7C1386.7 2391.7 1493.3 2449.3 1600 2485.3C1706.7 2521.3 1813.3 2535.7 1920 2470.8C2026.7 2406 2133.3 2262 2240 2226C2346.7 2190 2453.3 2262 2506.7 2298L2560 2334L2560 2245L2506.7 2194.7C2453.3 2144.3 2346.7 2043.7 2240 2058.2C2133.3 2072.7 2026.7 2202.3 1920 2260C1813.3 2317.7 1706.7 2303.3 1600 2274.5C1493.3 2245.7 1386.7 2202.3 1280 2180.7C1173.3 2159 1066.7 2159 960 2209.3C853.3 2259.7 746.7 2360.3 640 2331.5C533.3 2302.7 426.7 2144.3 320 2094C213.3 2043.7 106.7 2101.3 53.3 2130.2L0 2159Z" fill="#0f6fa1"></path><path d="M0 2593L53.3 2542.7C106.7 2492.3 213.3 2391.7 320 2413.3C426.7 2435 533.3 2579 640 2615C746.7 2651 853.3 2579 960 2557.3C1066.7 2535.7 1173.3 2564.3 1280 2600.3C1386.7 2636.3 1493.3 2679.7 1600 2708.5C1706.7 2737.3 1813.3 2751.7 1920 2686.8C2026.7 2622 2133.3 2478 2240 2449.2C2346.7 2420.3 2453.3 2506.7 2506.7 2549.8L2560 2593L2560 2332L2506.7 2296C2453.3 2260 2346.7 2188 2240 2224C2133.3 2260 2026.7 2404 1920 2468.8C1813.3 2533.7 1706.7 2519.3 1600 2483.3C1493.3 2447.3 1386.7 2389.7 1280 2353.7C1173.3 2317.7 1066.7 2303.3 960 2346.5C853.3 2389.7 746.7 2490.3 640 2461.5C533.3 2432.7 426.7 2274.3 320 2231.2C213.3 2188 106.7 2260 53.3 2296L0 2332Z" fill="#3478a7"></path><path d="M0 2939L53.3 2888.5C106.7 2838 213.3 2737 320 2729.7C426.7 2722.3 533.3 2808.7 640 2844.7C746.7 2880.7 853.3 2866.3 960 2866.3C1066.7 2866.3 1173.3 2880.7 1280 2909.5C1386.7 2938.3 1493.3 2981.7 1600 2989C1706.7 2996.3 1813.3 2967.7 1920 2881.3C2026.7 2795 2133.3 2651 2240 2636.5C2346.7 2622 2453.3 2737 2506.7 2794.5L2560 2852L2560 2591L2506.7 2547.8C2453.3 2504.7 2346.7 2418.3 2240 2447.2C2133.3 2476 2026.7 2620 1920 2684.8C1813.3 2749.7 1706.7 2735.3 1600 2706.5C1493.3 2677.7 1386.7 2634.3 1280 2598.3C1173.3 2562.3 1066.7 2533.7 960 2555.3C853.3 2577 746.7 2649 640 2613C533.3 2577 426.7 2433 320 2411.3C213.3 2389.7 106.7 2490.3 53.3 2540.7L0 2591Z" fill="#658eb5"></path><path d="M0 3025L53.3 2989C106.7 2953 213.3 2881 320 2888.2C426.7 2895.3 533.3 2981.7 640 3003.3C746.7 3025 853.3 2982 960 2974.8C1066.7 2967.7 1173.3 2996.3 1280 3046.7C1386.7 3097 1493.3 3169 1600 3169C1706.7 3169 1813.3 3097 1920 3003.3C2026.7 2909.7 2133.3 2794.3 2240 2801.5C2346.7 2808.7 2453.3 2938.3 2506.7 3003.2L2560 3068L2560 2850L2506.7 2792.5C2453.3 2735 2346.7 2620 2240 2634.5C2133.3 2649 2026.7 2793 1920 2879.3C1813.3 2965.7 1706.7 2994.3 1600 2987C1493.3 2979.7 1386.7 2936.3 1280 2907.5C1173.3 2878.7 1066.7 2864.3 960 2864.3C853.3 2864.3 746.7 2878.7 640 2842.7C533.3 2806.7 426.7 2720.3 320 2727.7C213.3 2735 106.7 2836 53.3 2886.5L0 2937Z" fill="#8ca6c4"></path><path d="M0 3846L53.3 3838.8C106.7 3831.7 213.3 3817.3 320 3824.5C426.7 3831.7 533.3 3860.3 640 3874.7C746.7 3889 853.3 3889 960 3903.3C1066.7 3917.7 1173.3 3946.3 1280 3932C1386.7 3917.7 1493.3 3860.3 1600 3846C1706.7 3831.7 1813.3 3860.3 1920 3874.7C2026.7 3889 2133.3 3889 2240 3874.7C2346.7 3860.3 2453.3 3831.7 2506.7 3817.3L2560 3803L2560 3066L2506.7 3001.2C2453.3 2936.3 2346.7 2806.7 2240 2799.5C2133.3 2792.3 2026.7 2907.7 1920 3001.3C1813.3 3095 1706.7 3167 1600 3167C1493.3 3167 1386.7 3095 1280 3044.7C1173.3 2994.3 1066.7 2965.7 960 2972.8C853.3 2980 746.7 3023 640 3001.3C533.3 2979.7 426.7 2893.3 320 2886.2C213.3 2879 106.7 2951 53.3 2987L0 3023Z" fill="#b0bed2"></path><path d="M0 4321L53.3 4321C106.7 4321 213.3 4321 320 4321C426.7 4321 533.3 4321 640 4321C746.7 4321 853.3 4321 960 4321C1066.7 4321 1173.3 4321 1280 4321C1386.7 4321 1493.3 4321 1600 4321C1706.7 4321 1813.3 4321 1920 4321C2026.7 4321 2133.3 4321 2240 4321C2346.7 4321 2453.3 4321 2506.7 4321L2560 4321L2560 3801L2506.7 3815.3C2453.3 3829.7 2346.7 3858.3 2240 3872.7C2133.3 3887 2026.7 3887 1920 3872.7C1813.3 3858.3 1706.7 3829.7 1600 3844C1493.3 3858.3 1386.7 3915.7 1280 3930C1173.3 3944.3 1066.7 3915.7 960 3901.3C853.3 3887 746.7 3887 640 3872.7C533.3 3858.3 426.7 3829.7 320 3822.5C213.3 3815.3 106.7 3829.7 53.3 3836.8L0 3844Z" fill="#d3d8e0"></path></svg>