<svg id="visual" viewBox="0 0 2560 4320" width="2560" height="4320" xmlns="http://www.w3.org/2000/svg" xmlns:xlink="http://www.w3.org/1999/xlink" version="1.1"><path d="M0 995L71.2 987.7C142.3 980.3 284.7 965.7 426.8 886.3C569 807 711 663 853.2 634.3C995.3 605.7 1137.7 692.3 1280 699.7C1422.3 707 1564.7 635 1706.8 656.5C1849 678 1991 793 2133.2 821.7C2275.3 850.3 2417.7 792.7 2488.8 763.8L2560 735L2560 0L2488.8 0C2417.7 0 2275.3 0 2133.2 0C1991 0 1849 0 1706.8 0C1564.7 0 1422.3 0 1280 0C1137.7 0 995.3 0 853.2 0C711 0 569 0 426.8 0C284.7 0 142.3 0 71.2 0L0 0Z" fill="#c5d0e1"></path><path d="M0 1427L71.2 1391C142.3 1355 284.7 1283 426.8 1218.2C569 1153.3 711 1095.7 853.2 1102.8C995.3 1110 1137.7 1182 1280 1153.2C1422.3 1124.3 1564.7 994.7 1706.8 1023.5C1849 1052.3 1991 1239.7 2133.2 1254C2275.3 1268.3 2417.7 1109.7 2488.8 1030.3L2560 951L2560 733L2488.8 761.8C2417.7 790.7 2275.3 848.3 2133.2 819.7C1991 791 1849 676 1706.8 654.5C1564.7 633 1422.3 705 1280 697.7C1137.7 690.3 995.3 603.7 853.2 632.3C711 661 569 805 426.8 884.3C284.7 963.7 142.3 978.3 71.2 985.7L0 993Z" fill="#a3b1c8"></path><path d="M0 1815L71.2 1771.8C142.3 1728.7 284.7 1642.3 426.8 1541.7C569 1441 711 1326 853.2 1304.5C995.3 1283 1137.7 1355 1280 1347.7C1422.3 1340.3 1564.7 1253.7 1706.8 1289.7C1849 1325.7 1991 1484.3 2133.2 1506C2275.3 1527.7 2417.7 1412.3 2488.8 1354.7L2560 1297L2560 949L2488.8 1028.3C2417.7 1107.7 2275.3 1266.3 2133.2 1252C1991 1237.7 1849 1050.3 1706.8 1021.5C1564.7 992.7 1422.3 1122.3 1280 1151.2C1137.7 1180 995.3 1108 853.2 1100.8C711 1093.7 569 1151.3 426.8 1216.2C284.7 1281 142.3 1353 71.2 1389L0 1425Z" fill="#8294af"></path><path d="M0 1988L71.2 1937.7C142.3 1887.3 284.7 1786.7 426.8 1685.8C569 1585 711 1484 853.2 1476.8C995.3 1469.7 1137.7 1556.3 1280 1549.2C1422.3 1542 1564.7 1441 1706.8 1469.7C1849 1498.3 1991 1656.7 2133.2 1685.5C2275.3 1714.3 2417.7 1613.7 2488.8 1563.3L2560 1513L2560 1295L2488.8 1352.7C2417.7 1410.3 2275.3 1525.7 2133.2 1504C1991 1482.3 1849 1323.7 1706.8 1287.7C1564.7 1251.7 1422.3 1338.3 1280 1345.7C1137.7 1353 995.3 1281 853.2 1302.5C711 1324 569 1439 426.8 1539.7C284.7 1640.3 142.3 1726.7 71.2 1769.8L0 1813Z" fill="#637796"></path><path d="M0 2161L71.2 2125C142.3 2089 284.7 2017 426.8 1909C569 1801 711 1657 853.2 1642.7C995.3 1628.3 1137.7 1743.7 1280 1743.7C1422.3 1743.7 1564.7 1628.3 1706.8 1642.7C1849 1657 1991 1801 2133.2 1851.3C2275.3 1901.7 2417.7 1858.3 2488.8 1836.7L2560 1815L2560 1511L2488.8 1561.3C2417.7 1611.7 2275.3 1712.3 2133.2 1683.5C1991 1654.7 1849 1496.3 1706.8 1467.7C1564.7 1439 1422.3 1540 1280 1547.2C1137.7 1554.3 995.3 1467.7 853.2 1474.8C711 1482 569 1583 426.8 1683.8C284.7 1784.7 142.3 1885.3 71.2 1935.7L0 1986Z" fill="#445c7e"></path><path d="M0 2334L71.2 2290.8C142.3 2247.7 284.7 2161.3 426.8 2074.8C569 1988.3 711 1901.7 853.2 1887.2C995.3 1872.7 1137.7 1930.3 1280 1901.7C1422.3 1873 1564.7 1758 1706.8 1772.5C1849 1787 1991 1931 2133.2 2003C2275.3 2075 2417.7 2075 2488.8 2075L2560 2075L2560 1813L2488.8 1834.7C2417.7 1856.3 2275.3 1899.7 2133.2 1849.3C1991 1799 1849 1655 1706.8 1640.7C1564.7 1626.3 1422.3 1741.7 1280 1741.7C1137.7 1741.7 995.3 1626.3 853.2 1640.7C711 1655 569 1799 426.8 1907C284.7 2015 142.3 2087 71.2 2123L0 2159Z" fill="#375175"></path><path d="M0 2766L71.2 2715.5C142.3 2665 284.7 2564 426.8 2470.3C569 2376.7 711 2290.3 853.2 2276C995.3 2261.7 1137.7 2319.3 1280 2254.5C1422.3 2189.7 1564.7 2002.3 1706.8 2031.2C1849 2060 1991 2305 2133.2 2384.3C2275.3 2463.7 2417.7 2377.3 2488.8 2334.2L2560 2291L2560 2073L2488.8 2073C2417.7 2073 2275.3 2073 2133.2 2001C1991 1929 1849 1785 1706.8 1770.5C1564.7 1756 1422.3 1871 1280 1899.7C1137.7 1928.3 995.3 1870.7 853.2 1885.2C711 1899.7 569 1986.3 426.8 2072.8C284.7 2159.3 142.3 2245.7 71.2 2288.8L0 2332Z" fill="#375175"></path><path d="M0 3284L71.2 3240.8C142.3 3197.7 284.7 3111.3 426.8 3111.3C569 3111.3 711 3197.7 853.2 3262.5C995.3 3327.3 1137.7 3370.7 1280 3356.3C1422.3 3342 1564.7 3270 1706.8 3226.8C1849 3183.7 1991 3169.3 2133.2 3190.8C2275.3 3212.3 2417.7 3269.7 2488.8 3298.3L2560 3327L2560 2289L2488.8 2332.2C2417.7 2375.3 2275.3 2461.7 2133.2 2382.3C1991 2303 1849 2058 1706.8 2029.2C1564.7 2000.3 1422.3 2187.7 1280 2252.5C1137.7 2317.3 995.3 2259.7 853.2 2274C711 2288.3 569 2374.7 426.8 2468.3C284.7 2562 142.3 2663 71.2 2713.5L0 2764Z" fill="#445c7e"></path><path d="M0 3500L71.2 3456.8C142.3 3413.7 284.7 3327.3 426.8 3313C569 3298.7 711 3356.3 853.2 3406.7C995.3 3457 1137.7 3500 1280 3500C1422.3 3500 1564.7 3457 1706.8 3428.3C1849 3399.7 1991 3385.3 2133.2 3406.8C2275.3 3428.3 2417.7 3485.7 2488.8 3514.3L2560 3543L2560 3325L2488.8 3296.3C2417.7 3267.7 2275.3 3210.3 2133.2 3188.8C1991 3167.3 1849 3181.7 1706.8 3224.8C1564.7 3268 1422.3 3340 1280 3354.3C1137.7 3368.7 995.3 3325.3 853.2 3260.5C711 3195.7 569 3109.3 426.8 3109.3C284.7 3109.3 142.3 3195.7 71.2 3238.8L0 3282Z" fill="#637796"></path><path d="M0 3630L71.2 3608.3C142.3 3586.7 284.7 3543.3 426.8 3550.5C569 3557.7 711 3615.3 853.2 3658.5C995.3 3701.7 1137.7 3730.3 1280 3730.3C1422.3 3730.3 1564.7 3701.7 1706.8 3673C1849 3644.3 1991 3615.7 2133.2 3637.3C2275.3 3659 2417.7 3731 2488.8 3767L2560 3803L2560 3541L2488.8 3512.3C2417.7 3483.7 2275.3 3426.3 2133.2 3404.8C1991 3383.3 1849 3397.7 1706.8 3426.3C1564.7 3455 1422.3 3498 1280 3498C1137.7 3498 995.3 3455 853.2 3404.7C711 3354.3 569 3296.7 426.8 3311C284.7 3325.3 142.3 3411.7 71.2 3454.8L0 3498Z" fill="#8294af"></path><path d="M0 4062L71.2 4076.3C142.3 4090.7 284.7 4119.3 426.8 4133.7C569 4148 711 4148 853.2 4155.2C995.3 4162.3 1137.7 4176.7 1280 4169.5C1422.3 4162.3 1564.7 4133.7 1706.8 4119.3C1849 4105 1991 4105 2133.2 4119.3C2275.3 4133.7 2417.7 4162.3 2488.8 4176.7L2560 4191L2560 3801L2488.8 3765C2417.7 3729 2275.3 3657 2133.2 3635.3C1991 3613.7 1849 3642.3 1706.8 3671C1564.7 3699.7 1422.3 3728.3 1280 3728.3C1137.7 3728.3 995.3 3699.7 853.2 3656.5C711 3613.3 569 3555.7 426.8 3548.5C284.7 3541.3 142.3 3584.7 71.2 3606.3L0 3628Z" fill="#a3b1c8"></path><path d="M0 4321L71.2 4321C142.3 4321 284.7 4321 426.8 4321C569 4321 711 4321 853.2 4321C995.3 4321 1137.7 4321 1280 4321C1422.3 4321 1564.7 4321 1706.8 4321C1849 4321 1991 4321 2133.2 4321C2275.3 4321 2417.7 4321 2488.8 4321L2560 4321L2560 4189L2488.8 4174.7C2417.7 4160.3 2275.3 4131.7 2133.2 4117.3C1991 4103 1849 4103 1706.8 4117.3C1564.7 4131.7 1422.3 4160.3 1280 4167.5C1137.7 4174.7 995.3 4160.3 853.2 4153.2C711 4146 569 4146 426.8 4131.7C284.7 4117.3 142.3 4088.7 71.2 4074.3L0 4060Z" fill="#c5d0e1"></path></svg>